<svg width="1165" height="146" viewBox="0 0 1165 146" fill="none" xmlns="http://www.w3.org/2000/svg">
<path d="M67.4084 49.1155L67.4084 86.8088L105.102 86.8088C126.787 86.8088 144.366 69.2298 144.366 47.5449C144.366 26.7274 127.49 9.85153 106.672 9.85153C84.9875 9.85153 67.4084 27.4306 67.4084 49.1155Z" fill="#FEECD3"/>
<path d="M0 98.8254L0 52.6511L46.1744 52.6511C71.6758 52.6511 92.3488 73.3241 92.3488 98.8255C92.3488 124.327 71.6758 145 46.1744 145C20.673 145 0 124.327 0 98.8254Z" fill="#B5D2AD"/>
<path d="M72.0061 60.5476C80.1453 66.0511 86.4322 74.0832 89.7463 83.5154C82.6766 85.6564 75.1771 86.8083 67.4084 86.8083C67.4085 77.5859 69.0313 68.7425 72.0061 60.5476Z" fill="#A1BF99"/>
<path d="M111.525 25.4533C111.722 25.4838 111.896 25.5865 112.012 25.7394C112.128 25.8926 112.181 26.0883 112.157 26.2853C112.134 26.4818 112.035 26.6644 111.888 26.801C111.381 27.2719 110.871 27.7491 110.367 28.2258L109.016 29.5168C102.128 36.1371 93.3886 45.0966 89.8605 48.8303C87.9805 50.8197 86.5372 52.2683 85.503 53.3322C84.9866 53.8635 84.5708 54.3005 84.255 54.6603C83.9411 55.018 83.7174 55.3084 83.5929 55.5461C83.5441 55.6391 83.4954 55.6902 83.4523 55.718C83.4105 55.7447 83.364 55.7558 83.3087 55.7541C83.1865 55.7504 83.035 55.6841 82.8458 55.5812C82.6706 55.486 82.4623 55.3592 82.2657 55.2853C82.0657 55.2102 81.8331 55.1719 81.6183 55.3L81.4864 55.3693C81.3516 55.4302 81.2094 55.4647 81.0685 55.4631C80.8801 55.4609 80.7083 55.3957 80.5821 55.2795C80.456 55.1632 80.3759 54.9974 80.3585 54.8098C80.3411 54.6227 80.3896 54.4281 80.4776 54.2482L80.5099 54.174C80.6521 53.8041 80.5098 53.4264 80.4044 53.1242C80.2838 52.7783 80.2055 52.5179 80.3312 52.2814C81.7027 50.901 82.7702 49.7338 83.7374 48.6623C84.7089 47.5861 85.5777 46.6086 86.5558 45.6057C93.4145 38.5884 100.894 32.0859 109.171 26.7023C109.762 26.3199 110.36 25.9408 110.956 25.5734C111.127 25.4684 111.33 25.423 111.525 25.4533Z" fill="#B4926C"/>
<path d="M98.4993 80.3721C101.664 80.4652 104.851 80.1769 107.964 79.5011C125.38 76.0045 139.299 59.1902 139.197 40.9422C139.351 28.116 139.432 15.2898 139.44 2.46363L139.438 4.16974e-05L136.978 0.00155966C136.309 0.00115442 135.64 0.00100787 134.971 0.00100793C122.814 0.00100918 110.657 0.0667482 98.4993 0.198319C78.7373 0.00379826 60.8811 16.4 59.1689 35.5434C58.9721 37.3446 58.9015 39.1376 58.9516 40.9422C58.9989 42.5878 59.0474 44.2335 59.0971 45.8792L60.9441 45.8792C60.9938 44.2335 61.0423 42.5878 61.0897 40.9422C61.1402 39.2331 61.3024 37.5495 61.5785 35.8711C64.2326 18.037 81.0059 4.18256 98.4993 4.72894C110.506 4.85888 122.512 4.9245 134.518 4.92611C134.534 16.9315 134.614 28.9368 134.759 40.9422C135.234 57.1472 123.514 72.9189 107.386 77.1389C104.504 77.9311 101.515 78.3778 98.4993 78.4697C98.1915 78.4789 97.8836 78.4881 97.5758 78.4974L97.5758 80.3444C97.8836 80.3537 98.1915 80.3629 98.4993 80.3721Z" fill="#B4926C"/>
<path d="M7.38816 42.9216C22.7794 43.0021 38.1707 43.123 53.562 43.2839C73.1949 43.2123 91.7356 56.6183 97.9751 74.8689C99.8643 80.1863 100.767 85.8294 100.661 91.4382C100.763 96.9342 100.86 102.431 100.953 107.927C101.119 117.822 101.269 127.717 101.402 137.612L101.423 139.255L99.7368 139.277C84.3453 139.484 68.9535 139.651 53.562 139.777C27.8085 140.626 4.28757 117.367 4.92527 91.4382C4.92527 76.0468 4.96589 60.6549 5.04637 45.2634L5.03367 42.9333L7.38816 42.9216ZM53.562 47.2429C38.9552 47.3957 24.3485 47.5123 9.74168 47.5925C9.81424 62.2076 9.85106 76.8231 9.85105 91.4382C9.29319 114.7 30.1255 135.794 53.562 135.447C67.294 135.56 81.0263 135.706 94.7583 135.883C90.7125 130.682 88.9793 128.607 86.4204 125.705C76.7204 114.738 66.3432 104.351 55.2827 94.5662C54.4993 93.8732 53.7051 93.1778 52.9009 92.4812C52.7214 92.3255 52.5995 92.1089 52.5698 91.8708C52.5401 91.6329 52.6033 91.3936 52.7466 91.2048C52.8898 91.0162 53.1032 90.8916 53.3403 90.8562C53.5777 90.8209 53.8189 90.8794 54.0171 91.0105C54.911 91.6034 55.7935 92.199 56.6636 92.7976C68.9418 101.263 80.2036 111.238 90.1137 122.446C92.5655 125.227 95.9294 128.784 98.1489 132.158C98.2624 124.081 98.3853 116.004 98.521 107.927C98.6133 102.431 98.7104 96.9342 98.813 91.4382C98.7134 86.0443 97.6567 80.6981 95.6968 75.7185C89.1715 58.6178 71.5551 46.7985 53.562 47.2429Z" fill="#4F7147"/>
<path d="M259.389 145.2C251.389 145.2 243.856 143.667 236.789 140.6C229.722 137.533 223.722 133.267 218.789 127.8C213.989 122.333 210.856 116.133 209.389 109.2L224.189 103C226.322 111.4 230.789 118 237.589 122.8C244.389 127.6 251.656 130 259.389 130C267.656 130 274.656 127.467 280.389 122.4C286.122 117.2 288.989 110.467 288.989 102.2C288.989 96.4667 287.322 91.7333 283.989 88C280.656 84.2667 274.789 80.4 266.389 76.4C255.722 71.2 247.589 67 241.989 63.8C236.522 60.4667 231.922 56.4 228.189 51.6C224.589 46.6667 222.789 40.8 222.789 34C222.789 27.4667 224.522 21.6667 227.989 16.6C231.589 11.4 236.322 7.4 242.189 4.59999C248.189 1.66666 254.589 0.199989 261.389 0.199989C267.122 0.199989 272.456 1.39999 277.389 3.79999C282.456 6.06666 286.456 9.13333 289.389 13C292.456 16.8667 293.989 21 293.989 25.4C293.989 26.0667 293.856 27.2 293.589 28.8L277.989 27.8C278.522 25.6667 277.922 23.6667 276.189 21.8C274.589 19.8 272.322 18.2667 269.389 17.2C266.456 16 263.656 15.4 260.989 15.4C255.122 15.4 249.989 17.2 245.589 20.8C241.322 24.2667 239.189 28.4667 239.189 33.4C239.189 37.4 240.589 41 243.389 44.2C246.322 47.4 249.722 50.2 253.589 52.6C257.456 54.8667 262.456 57.5333 268.589 60.6L275.789 64.2C286.322 69.9333 293.856 75.6667 298.389 81.4C303.056 87.1333 305.389 94.1333 305.389 102.4C305.389 110.667 303.256 118.067 298.989 124.6C294.856 131.133 289.256 136.2 282.189 139.8C275.122 143.4 267.522 145.2 259.389 145.2ZM333.517 3.79999H349.917V141.2H333.517V3.79999ZM478.591 141.8C474.057 141.8 470.191 140.733 466.991 138.6C463.924 136.467 460.657 132.733 457.191 127.4L429.191 83.8L396.191 141.2H376.991L418.991 68.8L376.591 3.79999H395.391L429.391 55.8L463.191 3.79999H482.591L439.591 70.6L472.791 123C473.724 124.467 474.724 125.533 475.791 126.2C476.991 126.867 478.057 127.2 478.991 127.2C481.124 127.2 482.857 126.8 484.191 126L489.191 138.8C487.857 139.6 486.124 140.333 483.991 141C481.857 141.533 480.057 141.8 478.591 141.8ZM610.17 145.2C602.17 145.2 594.637 143.667 587.57 140.6C580.504 137.533 574.504 133.267 569.57 127.8C564.77 122.333 561.637 116.133 560.17 109.2L574.97 103C577.104 111.4 581.57 118 588.37 122.8C595.17 127.6 602.437 130 610.17 130C618.437 130 625.437 127.467 631.17 122.4C636.904 117.2 639.77 110.467 639.77 102.2C639.77 96.4667 638.104 91.7333 634.77 88C631.437 84.2667 625.57 80.4 617.17 76.4C606.504 71.2 598.37 67 592.77 63.8C587.304 60.4667 582.704 56.4 578.97 51.6C575.37 46.6667 573.57 40.8 573.57 34C573.57 27.4667 575.304 21.6667 578.77 16.6C582.37 11.4 587.104 7.4 592.97 4.59999C598.97 1.66666 605.37 0.199989 612.17 0.199989C617.904 0.199989 623.237 1.39999 628.17 3.79999C633.237 6.06666 637.237 9.13333 640.17 13C643.237 16.8667 644.77 21 644.77 25.4C644.77 26.0667 644.637 27.2 644.37 28.8L628.77 27.8C629.304 25.6667 628.704 23.6667 626.97 21.8C625.37 19.8 623.104 18.2667 620.17 17.2C617.237 16 614.437 15.4 611.77 15.4C605.904 15.4 600.77 17.2 596.37 20.8C592.104 24.2667 589.97 28.4667 589.97 33.4C589.97 37.4 591.37 41 594.17 44.2C597.104 47.4 600.504 50.2 604.37 52.6C608.237 54.8667 613.237 57.5333 619.37 60.6L626.57 64.2C637.104 69.9333 644.637 75.6667 649.17 81.4C653.837 87.1333 656.17 94.1333 656.17 102.4C656.17 110.667 654.037 118.067 649.77 124.6C645.637 131.133 640.037 136.2 632.97 139.8C625.904 143.4 618.304 145.2 610.17 145.2ZM684.298 3.79999H773.898V19H700.298V60.8H754.498V76H700.298V126H777.698V141.2H684.298V3.79999ZM805.783 3.79999H895.383V19H821.783V60.8H875.983V76H821.783V126H899.183V141.2H805.783V3.79999ZM980.667 2.79999C993.067 3.59999 1004.07 7.06665 1013.67 13.2C1023.4 19.3333 1030.93 27.6 1036.27 38C1041.6 48.2667 1044.27 59.8 1044.27 72.6C1044.27 86.2 1041.27 98.3333 1035.27 109C1029.4 119.667 1021.2 128 1010.67 134C1000.13 140 988.134 143 974.667 143H964.667C963.601 143 961.267 143 957.667 143C954.067 143 947.667 142.6 938.467 141.8L927.267 140.8V2.59999L980.667 2.79999ZM968.267 128C987.467 128 1002.2 123.267 1012.47 113.8C1022.73 104.333 1027.87 90.8 1027.87 73.2C1027.87 56.6667 1023.47 43.5333 1014.67 33.8C1006 24.0667 993.934 18.8 978.467 18H943.667V127C952.734 127.667 960.934 128 968.267 128ZM1105.48 145.2C1097.48 145.2 1089.95 143.667 1082.88 140.6C1075.82 137.533 1069.82 133.267 1064.88 127.8C1060.08 122.333 1056.95 116.133 1055.48 109.2L1070.28 103C1072.42 111.4 1076.88 118 1083.68 122.8C1090.48 127.6 1097.75 130 1105.48 130C1113.75 130 1120.75 127.467 1126.48 122.4C1132.22 117.2 1135.08 110.467 1135.08 102.2C1135.08 96.4667 1133.42 91.7333 1130.08 88C1126.75 84.2667 1120.88 80.4 1112.48 76.4C1101.82 71.2 1093.68 67 1088.08 63.8C1082.62 60.4667 1078.02 56.4 1074.28 51.6C1070.68 46.6667 1068.88 40.8 1068.88 34C1068.88 27.4667 1070.62 21.6667 1074.08 16.6C1077.68 11.4 1082.42 7.4 1088.28 4.59999C1094.28 1.66666 1100.68 0.199989 1107.48 0.199989C1113.22 0.199989 1118.55 1.39999 1123.48 3.79999C1128.55 6.06666 1132.55 9.13333 1135.48 13C1138.55 16.8667 1140.08 21 1140.08 25.4C1140.08 26.0667 1139.95 27.2 1139.68 28.8L1124.08 27.8C1124.62 25.6667 1124.02 23.6667 1122.28 21.8C1120.68 19.8 1118.42 18.2667 1115.48 17.2C1112.55 16 1109.75 15.4 1107.08 15.4C1101.22 15.4 1096.08 17.2 1091.68 20.8C1087.42 24.2667 1085.28 28.4667 1085.28 33.4C1085.28 37.4 1086.68 41 1089.48 44.2C1092.42 47.4 1095.82 50.2 1099.68 52.6C1103.55 54.8667 1108.55 57.5333 1114.68 60.6L1121.88 64.2C1132.42 69.9333 1139.95 75.6667 1144.48 81.4C1149.15 87.1333 1151.48 94.1333 1151.48 102.4C1151.48 110.667 1149.35 118.067 1145.08 124.6C1140.95 131.133 1135.35 136.2 1128.28 139.8C1121.22 143.4 1113.62 145.2 1105.48 145.2Z" fill="#FEECD3"/>
</svg>
