<svg width="2076" height="291" viewBox="0 0 2076 291" fill="none" xmlns="http://www.w3.org/2000/svg">
<path d="M135.115 87.5351L135.115 173.439L221.02 173.439C258.769 173.439 289.371 142.838 289.371 105.088L289.371 84.8011C289.371 48.5619 259.993 19.1841 223.754 19.1841L203.466 19.1841C165.717 19.1841 135.115 49.7859 135.115 87.5351Z" fill="#FEECD3"/>
<path d="M0 208.058L0 104.973L103.085 104.973C148.384 104.973 185.106 141.695 185.106 186.994V208.058C185.106 253.357 148.384 290.08 103.085 290.08H82.0213C36.7222 290.08 0 253.357 0 208.058Z" fill="#B5D2AD"/>
<path d="M135.116 111.463C160.501 122.242 179.336 145.443 183.992 173.439H135.116V111.463Z" fill="#A1BF99"/>
<path d="M196.722 273.746C197.008 274.033 197.378 274.241 197.786 274.299C198.194 274.357 198.602 274.264 198.93 274.035C199.257 273.805 199.482 273.452 199.566 273.049C199.649 272.645 199.579 272.226 199.406 271.86C199.406 271.86 199.406 271.86 199.406 271.86C198.454 269.896 197.447 268.019 196.368 266.132C192.05 258.61 187.001 251.666 181.338 245.243C161.498 222.806 139.025 202.764 114.553 185.645C112.819 184.435 111.061 183.229 109.279 182.028C108.928 181.792 108.499 181.687 108.076 181.749C107.653 181.812 107.273 182.034 107.018 182.371C106.762 182.707 106.65 183.133 106.703 183.557C106.757 183.981 106.973 184.366 107.295 184.641C107.295 184.641 107.295 184.641 107.295 184.641C108.918 186.026 110.519 187.408 112.1 188.786C134.409 208.25 155.311 229.023 174.778 251.032C180.332 257.331 186.139 263.362 192.205 269.33C193.717 270.821 195.245 272.303 196.722 273.746Z" fill="#4F7147"/>
<path d="M222.404 50.6974C222.747 50.487 223.152 50.3956 223.544 50.4562C223.937 50.517 224.286 50.7236 224.519 51.0304C224.752 51.3374 224.857 51.729 224.81 52.1242C224.764 52.5181 224.566 52.8845 224.271 53.1583C223.255 54.1024 222.233 55.0591 221.222 56.0148C207.092 69.4311 187.661 89.3332 180.118 97.3156C176.35 101.303 173.457 104.205 171.385 106.337C170.349 107.402 169.516 108.278 168.883 108.999C168.253 109.716 167.806 110.299 167.556 110.776C167.459 110.962 167.36 111.065 167.273 111.12C167.19 111.174 167.098 111.197 166.987 111.193C166.742 111.186 166.439 111.053 166.059 110.847C165.708 110.656 165.29 110.401 164.895 110.253C164.494 110.102 164.028 110.027 163.597 110.283C163.253 110.488 162.871 110.615 162.495 110.61C162.117 110.606 161.774 110.474 161.521 110.241C161.268 110.008 161.109 109.676 161.074 109.3C161.039 108.925 161.135 108.535 161.311 108.174L161.376 108.026C161.661 107.284 161.377 106.527 161.166 105.921C160.924 105.227 160.767 104.706 161.019 104.232C163.768 101.465 165.907 99.1253 167.846 96.9777C169.793 94.8203 171.535 92.8612 173.496 90.8507C187.244 76.785 202.236 63.7511 218.826 52.9601C220.01 52.1935 221.208 51.4337 222.404 50.6974Z" fill="#B4926C"/>
<path d="M121.947 91.399C120.854 91.399 119.76 91.399 118.667 91.399C118.503 85.1749 118.347 78.9508 118.198 72.7267C118.181 71.9944 118.175 71.2641 118.181 70.536C117.555 33.7541 150.875 -0.0820797 188.658 0.42518C215.952 0.142509 243.246 0.00116418 270.54 0.00116179C271.881 0.00116168 273.222 0.00151251 274.562 0.00218378L278.934 -2.91264e-05L278.936 4.37563C278.921 33.0104 278.751 61.6451 278.425 90.2799C278.727 124.982 250.3 156.447 216.659 160.022C213.19 160.456 209.702 160.628 206.211 160.544C202.669 160.455 199.126 160.365 195.584 160.271C195.584 159.178 195.584 158.084 195.584 156.99C199.126 156.897 202.669 156.807 206.211 156.718C209.516 156.634 212.791 156.31 216.024 155.749C247.383 150.801 271.676 121.163 270.699 90.2799C270.374 61.6451 270.203 33.0104 270.189 4.37563L274.562 8.74909C273.222 8.74976 271.881 8.75011 270.54 8.75011C243.246 8.75011 215.952 8.60877 188.658 8.3261C155.146 7.17436 123.687 36.1639 122.498 70.6679C122.461 71.351 122.433 72.0374 122.416 72.7267C122.268 78.9508 122.111 85.1749 121.947 91.399Z" fill="#B4926C"/>
<path d="M201.555 172.186C200.462 172.186 199.368 172.186 198.275 172.186C198.092 183.353 197.919 194.52 197.755 205.687C197.414 228.882 197.113 252.077 196.851 275.271L199.915 272.207C165.553 271.819 131.192 271.517 96.8299 271.301C55.2635 272.01 18.187 234.578 19.1831 193.25C19.1831 193.25 19.1831 193.25 19.1831 193.25C19.1831 158.888 19.0968 124.526 18.9243 90.1647L14.8086 94.2803C49.1703 94.1078 83.532 93.8489 117.894 93.5037C148.555 92.7994 178.662 111.993 191.206 140.46C195.688 150.369 198.102 161.236 198.275 172.186C199.368 172.186 200.462 172.186 201.555 172.186C201.749 160.8 199.587 149.325 195.169 138.742C182.875 108.36 151.19 86.735 117.894 86.8257C83.532 86.4806 49.1703 86.2217 14.8086 86.0491L10.6725 86.0699L10.693 90.1647C10.5205 124.526 10.4342 158.888 10.4342 193.25C10.4342 193.25 10.4342 193.25 10.4342 193.25C9.30561 239.3 51.0172 280.657 96.8299 279.241C131.192 279.025 165.553 278.724 199.915 278.335L203.013 278.3L202.979 275.271C202.717 252.077 202.416 228.882 202.075 205.687C201.911 194.52 201.738 183.353 201.555 172.186ZM198.275 172.186L201.555 172.186L198.275 172.186Z" fill="#4F7147"/>
<path d="M463.051 271.93C449.051 271.93 435.868 269.247 423.501 263.88C411.135 258.513 400.635 251.047 392.001 241.48C383.601 231.913 378.118 221.063 375.551 208.93L401.451 198.08C405.185 212.78 413.001 224.33 424.901 232.73C436.801 241.13 449.518 245.33 463.051 245.33C477.518 245.33 489.768 240.896 499.801 232.03C509.835 222.93 514.851 211.147 514.851 196.68C514.851 186.646 511.935 178.363 506.101 171.83C500.268 165.296 490.001 158.53 475.301 151.53C456.635 142.43 442.401 135.08 432.601 129.48C423.035 123.646 414.985 116.53 408.451 108.13C402.151 99.4965 399.001 89.2298 399.001 77.3298C399.001 65.8965 402.035 55.7465 408.101 46.8798C414.401 37.7798 422.685 30.7798 432.951 25.8798C443.451 20.7465 454.651 18.1798 466.551 18.1798C476.585 18.1798 485.918 20.2798 494.551 24.4798C503.418 28.4465 510.418 33.8132 515.551 40.5798C520.918 47.3465 523.601 54.5798 523.601 62.2798C523.601 63.4465 523.368 65.4298 522.901 68.2298L495.601 66.4798C496.535 62.7465 495.485 59.2465 492.451 55.9798C489.651 52.4798 485.685 49.7965 480.551 47.9298C475.418 45.8298 470.518 44.7798 465.851 44.7798C455.585 44.7798 446.601 47.9298 438.901 54.2298C431.435 60.2965 427.701 67.6465 427.701 76.2798C427.701 83.2798 430.151 89.5798 435.051 95.1798C440.185 100.78 446.135 105.68 452.901 109.88C459.668 113.846 468.418 118.513 479.151 123.88L491.751 130.18C510.185 140.213 523.368 150.246 531.301 160.28C539.468 170.313 543.551 182.563 543.551 197.03C543.551 211.496 539.818 224.446 532.351 235.88C525.118 247.313 515.318 256.18 502.951 262.48C490.585 268.78 477.285 271.93 463.051 271.93ZM592.776 24.4798H621.476V264.93H592.776V24.4798ZM846.654 265.98C838.721 265.98 831.954 264.113 826.354 260.38C820.987 256.647 815.271 250.113 809.204 240.78L760.204 164.48L702.454 264.93H668.854L742.354 138.23L668.154 24.4798H701.054L760.554 115.48L819.704 24.4798H853.654L778.404 141.38L836.504 233.08C838.137 235.646 839.887 237.513 841.754 238.68C843.854 239.846 845.721 240.43 847.354 240.43C851.087 240.43 854.121 239.73 856.454 238.33L865.204 260.73C862.871 262.13 859.837 263.413 856.104 264.58C852.371 265.513 849.221 265.98 846.654 265.98ZM1076.92 271.93C1062.92 271.93 1049.74 269.247 1037.37 263.88C1025 258.513 1014.5 251.047 1005.87 241.48C997.468 231.913 991.985 221.063 989.418 208.93L1015.32 198.08C1019.05 212.78 1026.87 224.33 1038.77 232.73C1050.67 241.13 1063.39 245.33 1076.92 245.33C1091.39 245.33 1103.64 240.896 1113.67 232.03C1123.7 222.93 1128.72 211.147 1128.72 196.68C1128.72 186.646 1125.8 178.363 1119.97 171.83C1114.14 165.296 1103.87 158.53 1089.17 151.53C1070.5 142.43 1056.27 135.08 1046.47 129.48C1036.9 123.646 1028.85 116.53 1022.32 108.13C1016.02 99.4965 1012.87 89.2298 1012.87 77.3298C1012.87 65.8965 1015.9 55.7465 1021.97 46.8798C1028.27 37.7798 1036.55 30.7798 1046.82 25.8798C1057.32 20.7465 1068.52 18.1798 1080.42 18.1798C1090.45 18.1798 1099.79 20.2798 1108.42 24.4798C1117.29 28.4465 1124.29 33.8132 1129.42 40.5798C1134.79 47.3465 1137.47 54.5798 1137.47 62.2798C1137.47 63.4465 1137.24 65.4298 1136.77 68.2298L1109.47 66.4798C1110.4 62.7465 1109.35 59.2465 1106.32 55.9798C1103.52 52.4798 1099.55 49.7965 1094.42 47.9298C1089.29 45.8298 1084.39 44.7798 1079.72 44.7798C1069.45 44.7798 1060.47 47.9298 1052.77 54.2298C1045.3 60.2965 1041.57 67.6465 1041.57 76.2798C1041.57 83.2798 1044.02 89.5798 1048.92 95.1798C1054.05 100.78 1060 105.68 1066.77 109.88C1073.54 113.846 1082.29 118.513 1093.02 123.88L1105.62 130.18C1124.05 140.213 1137.24 150.246 1145.17 160.28C1153.34 170.313 1157.42 182.563 1157.42 197.03C1157.42 211.496 1153.69 224.446 1146.22 235.88C1138.99 247.313 1129.19 256.18 1116.82 262.48C1104.45 268.78 1091.15 271.93 1076.92 271.93ZM1206.64 24.4798H1363.44V51.0798H1234.64V124.23H1329.49V150.83H1234.64V238.33H1370.09V264.93H1206.64V24.4798ZM1419.24 24.4798H1576.04V51.0798H1447.24V124.23H1542.09V150.83H1447.24V238.33H1582.69V264.93H1419.24V24.4798ZM1725.29 22.7298C1746.99 24.1298 1766.24 30.1965 1783.04 40.9298C1800.07 51.6631 1813.25 66.1298 1822.59 84.3298C1831.92 102.296 1836.59 122.48 1836.59 144.88C1836.59 168.68 1831.34 189.913 1820.84 208.58C1810.57 227.246 1796.22 241.83 1777.79 252.33C1759.35 262.83 1738.35 268.08 1714.79 268.08H1697.29C1695.42 268.08 1691.34 268.08 1685.04 268.08C1678.74 268.08 1667.54 267.38 1651.44 265.98L1631.84 264.23V22.3798L1725.29 22.7298ZM1703.59 241.83C1737.19 241.83 1762.97 233.546 1780.94 216.98C1798.9 200.413 1807.89 176.73 1807.89 145.93C1807.89 116.996 1800.19 94.0132 1784.79 76.9798C1769.62 59.9465 1748.5 50.7298 1721.44 49.3298H1660.54V240.08C1676.4 241.246 1690.75 241.83 1703.59 241.83ZM1943.72 271.93C1929.72 271.93 1916.53 269.247 1904.17 263.88C1891.8 258.513 1881.3 251.047 1872.67 241.48C1864.27 231.913 1858.78 221.063 1856.22 208.93L1882.12 198.08C1885.85 212.78 1893.67 224.33 1905.57 232.73C1917.47 241.13 1930.18 245.33 1943.72 245.33C1958.18 245.33 1970.43 240.896 1980.47 232.03C1990.5 222.93 1995.52 211.147 1995.52 196.68C1995.52 186.646 1992.6 178.363 1986.77 171.83C1980.93 165.296 1970.67 158.53 1955.97 151.53C1937.3 142.43 1923.07 135.08 1913.27 129.48C1903.7 123.646 1895.65 116.53 1889.12 108.13C1882.82 99.4965 1879.67 89.2298 1879.67 77.3298C1879.67 65.8965 1882.7 55.7465 1888.77 46.8798C1895.07 37.7798 1903.35 30.7798 1913.62 25.8798C1924.12 20.7465 1935.32 18.1798 1947.22 18.1798C1957.25 18.1798 1966.58 20.2798 1975.22 24.4798C1984.08 28.4465 1991.08 33.8132 1996.22 40.5798C2001.58 47.3465 2004.27 54.5798 2004.27 62.2798C2004.27 63.4465 2004.03 65.4298 2003.57 68.2298L1976.27 66.4798C1977.2 62.7465 1976.15 59.2465 1973.12 55.9798C1970.32 52.4798 1966.35 49.7965 1961.22 47.9298C1956.08 45.8298 1951.18 44.7798 1946.52 44.7798C1936.25 44.7798 1927.27 47.9298 1919.57 54.2298C1912.1 60.2965 1908.37 67.6465 1908.37 76.2798C1908.37 83.2798 1910.82 89.5798 1915.72 95.1798C1920.85 100.78 1926.8 105.68 1933.57 109.88C1940.33 113.846 1949.08 118.513 1959.82 123.88L1972.42 130.18C1990.85 140.213 2004.03 150.246 2011.97 160.28C2020.13 170.313 2024.22 182.563 2024.22 197.03C2024.22 211.496 2020.48 224.446 2013.02 235.88C2005.78 247.313 1995.98 256.18 1983.62 262.48C1971.25 268.78 1957.95 271.93 1943.72 271.93Z" fill="#B4926C"/>
</svg>
